# Blender v2.81 (sub 16) OBJ File: ''
# www.blender.org
o Cube
v 1.000000 1.000000 -1.000000
v 1.000000 -1.000000 -1.000000
v 1.000000 1.000000 1.000000
v 1.000000 -1.000000 1.000000
v -1.000000 1.000000 -1.000000
v -1.000000 -1.000000 -1.000000
v -1.000000 1.000000 1.000000
v -1.000000 -1.000000 1.000000
vt 1.000912 -0.007334
vt -0.007834 1.001412
vt -0.007834 -0.007334
vt 0.994151 0.001889
vt 0.000928 0.995112
vt 0.000928 0.001889
vt 0.996470 0.002569
vt 0.003530 0.995509
vt 0.003530 0.002569
vt 1.000514 -0.007396
vt -0.008357 1.001475
vt -0.008357 -0.007396
vt 0.999734 -0.000234
vt 0.000266 0.999234
vt 0.000266 -0.000234
vt 0.995473 0.000105
vt -0.005316 1.000895
vt -0.005316 0.000105
vt 1.000912 1.001412
vt 0.994151 0.995112
vt 0.996470 0.995509
vt 1.000514 1.001475
vt 0.999734 0.999234
vt 0.995473 1.000895
vn 0.0000 1.0000 0.0000
vn 0.0000 0.0000 1.0000
vn -1.0000 0.0000 0.0000
vn 0.0000 -1.0000 0.0000
vn 1.0000 0.0000 0.0000
vn 0.0000 0.0000 -1.0000
s off
f 5/1/1 3/2/1 1/3/1
f 3/4/2 8/5/2 4/6/2
f 7/7/3 6/8/3 8/9/3
f 2/10/4 8/11/4 6/12/4
f 1/13/5 4/14/5 2/15/5
f 5/16/6 2/17/6 6/18/6
f 5/1/1 7/19/1 3/2/1
f 3/4/2 7/20/2 8/5/2
f 7/7/3 5/21/3 6/8/3
f 2/10/4 4/22/4 8/11/4
f 1/13/5 3/23/5 4/14/5
f 5/16/6 1/24/6 2/17/6
